<?xml version="1.0" standalone="no"?>
<!DOCTYPE svg PUBLIC "-//W3C//DTD SVG 1.1//EN" "http://www.w3.org/Graphics/SVG/1.1/DTD/svg11.dtd" >
<svg xmlns="http://www.w3.org/2000/svg" xmlns:xlink="http://www.w3.org/1999/xlink" version="1.1">
<metadata>
Created by FontForge 20161116 at Sat Dec 24 17:51:38 2016
 By Jimmy Wärting
Typeface ?(your company). 2016. All Rights Reserved
</metadata>
<defs>
<font id="BEAUTIFULES" horiz-adv-x="129" >
  <font-face 
    font-family="BEAUTIFUL ES"
    font-weight="400"
    font-stretch="normal"
    units-per-em="1024"
    panose-1="2 0 5 0 0 0 0 0 0 0"
    ascent="819"
    descent="-205"
    x-height="203"
    cap-height="430"
    bbox="-444 -376 1043 584"
    underline-thickness="150"
    underline-position="-292"
    unicode-range="U+0020-F002"
  />
<missing-glyph horiz-adv-x="1024" 
 />
    <glyph glyph-name=".notdef" horiz-adv-x="1024" 
 />
    <glyph glyph-name=".null" horiz-adv-x="0" 
 />
    <glyph glyph-name="nonmarkingreturn" horiz-adv-x="508" 
 />
    <glyph glyph-name="space" unicode=" " horiz-adv-x="508" 
 />
    <glyph glyph-name="space" unicode="&#xa0;" horiz-adv-x="508" 
 />
    <glyph glyph-name="exclam" unicode="!" 
 />
    <glyph glyph-name="quotedbl" unicode="&#x22;" 
 />
    <glyph glyph-name="numbersign" unicode="#" 
 />
    <glyph glyph-name="dollar" unicode="$" 
 />
    <glyph glyph-name="percent" unicode="%" 
 />
    <glyph glyph-name="ampersand" unicode="&#x26;" 
 />
    <glyph glyph-name="quotesingle" unicode="'" 
 />
    <glyph glyph-name="parenleft" unicode="(" 
 />
    <glyph glyph-name="parenright" unicode=")" 
 />
    <glyph glyph-name="asterisk" unicode="*" 
 />
    <glyph glyph-name="plus" unicode="+" 
 />
    <glyph glyph-name="comma" unicode="," 
 />
    <glyph glyph-name="hyphen" unicode="-" 
 />
    <glyph glyph-name="hyphen" unicode="&#xad;" 
 />
    <glyph glyph-name="period" unicode="." 
 />
    <glyph glyph-name="slash" unicode="/" 
 />
    <glyph glyph-name="zero" unicode="0" 
 />
    <glyph glyph-name="one" unicode="1" 
 />
    <glyph glyph-name="two" unicode="2" 
 />
    <glyph glyph-name="three" unicode="3" 
 />
    <glyph glyph-name="four" unicode="4" 
 />
    <glyph glyph-name="five" unicode="5" 
 />
    <glyph glyph-name="six" unicode="6" 
 />
    <glyph glyph-name="seven" unicode="7" 
 />
    <glyph glyph-name="eight" unicode="8" 
 />
    <glyph glyph-name="nine" unicode="9" 
 />
    <glyph glyph-name="colon" unicode=":" 
 />
    <glyph glyph-name="semicolon" unicode=";" 
 />
    <glyph glyph-name="semicolon" unicode="&#x37e;" 
 />
    <glyph glyph-name="less" unicode="&#x3c;" 
 />
    <glyph glyph-name="equal" unicode="=" 
 />
    <glyph glyph-name="greater" unicode="&#x3e;" 
 />
    <glyph glyph-name="question" unicode="?" 
 />
    <glyph glyph-name="at" unicode="@" 
 />
    <glyph glyph-name="A" unicode="A" horiz-adv-x="589" 
d="M774 434h10q39 0 55 -32l1 -5v-7q-5 -20 -20 -20h-7l-20 10l-5 1h-3q-22 -6 -80 -84q-63 -85 -137 -203v-1v0q16 10 45 38q10 8 21 8q22 -5 22 -21v-6q0 -22 -73 -69q-41 -20 -60 -20q-30 -25 -56 -25q-28 0 -34 25v8q-10 0 -55 20l-30 17q-115 -78 -214 -78h-8
q-101 0 -123 64q-3 11 -3 21v6q0 49 48 71q13 3 25 3h1q39 0 48 -38l1 -17v-6q0 -26 -34 -41v-1l33 -5h8q64 0 138 43q15 7 36 21q-34 48 -34 95q0 80 89 110q20 5 37 5q62 0 102 -52q100 98 130 116q77 49 146 49zM523 220l6 -33q63 65 84 99q17 20 18 34v1h-1
q-17 -13 -107 -101zM346 196q0 -13 12 -48l100 83q-22 34 -59 34q-36 0 -50 -44q-3 -15 -3 -25zM393 104q39 -23 64 -23q22 31 22 43l1 14l-3 39h-1q-40 -38 -83 -73z" />
    <glyph glyph-name="B" unicode="B" horiz-adv-x="539" 
d="M700 484h9q66 0 83 -46v-5q-4 -25 -25 -25q-15 0 -24 18q-17 8 -38 8q-53 0 -117 -41v-2q32 -23 32 -63q0 -65 -73 -100q37 -27 37 -73q0 -90 -104 -137q-45 -18 -96 -18q-66 0 -87 39q-6 11 -6 25q-89 -74 -175 -74q-91 0 -112 61q-4 16 -4 25v7q0 116 183 239
q45 29 92 49q113 48 210 48h14q22 -1 22 -2q97 67 179 67zM78 78q0 -37 34 -37h5q72 0 163 129q53 71 109 132q22 23 61 59q-131 -15 -240 -91q-34 -22 -71 -62q-61 -74 -61 -130zM458 256l7 -1h1q18 0 52 31q20 24 20 50v2l-1 9h-1q-46 -49 -78 -91zM429 199l-13 2
q-13 -19 -50 -63q40 0 50 -30l2 -13q0 -29 -33 -44v-1h2q55 0 98 76q10 28 10 45q-7 32 -23 32q-28 -4 -43 -4z" />
    <glyph glyph-name="C" unicode="C" horiz-adv-x="291" 
d="M236 485h6q71 0 116 -53q27 4 52 4q99 0 114 -59l1 -17v-1q0 -72 -109 -106q-38 -10 -79 -10h-15q-72 0 -128 29q-97 -102 -97 -171q0 -35 24 -45q12 -6 31 -6h2q68 5 146 66q33 28 48 28q20 0 24 -26q0 -26 -97 -89q-68 -39 -130 -39h-8q-99 0 -128 67q-9 23 -9 46v8
q0 90 119 198q21 17 21 19q-14 25 -14 47v9q0 62 69 94q21 7 41 7zM180 382v-2v-1q0 -11 7 -21q55 34 107 54v0q-29 18 -56 18h-10q-33 0 -47 -38zM384 384q7 -24 7 -38v-12q0 -21 -17 -28l-7 -1q-22 0 -26 41q-6 22 -10 22q-29 -13 -74 -43l-19 -16q38 -15 93 -15
q71 0 112 44q6 11 8 25q0 24 -40 24h-6q-21 -1 -21 -3z" />
    <glyph glyph-name="D" unicode="D" horiz-adv-x="613" 
d="M405 432h12q116 0 196 -55h1q69 45 146 45q63 -3 80 -40v-10q-5 -20 -20 -20h-6q-41 18 -55 18h-3q-56 0 -106 -33q34 -48 34 -103q0 -105 -95 -174q-90 -60 -211 -60h-4q-76 0 -121 5q-52 -5 -93 -5h-58q-91 0 -99 25q-3 4 -3 11v4q0 28 58 35l39 2h31q55 0 145 -14
q30 11 68 44q50 51 77 90q37 46 95 105l40 33q-48 39 -136 39q-150 0 -235 -92q-24 -34 -24 -70v-5q0 -46 51 -46h6q57 0 119 55q28 29 28 60q0 16 -11 20l-10 1h-4q-28 0 -56 -38l-12 -4h-3q-17 0 -20 24q0 23 44 57q24 12 47 12h2q57 0 74 -43q3 -7 5 -30q0 -69 -79 -128
q-62 -38 -123 -38v0q-97 0 -128 56q-11 23 -11 51q0 112 158 183q87 33 170 33zM374 54v-1h2q69 0 136 46q97 75 97 164q0 12 -4 30q-20 -22 -77 -99q-28 -42 -78 -89q-41 -33 -72 -50z" />
    <glyph glyph-name="E" unicode="E" horiz-adv-x="286" 
d="M255 484h6q61 0 107 -49q26 4 54 5q63 0 101 -32q17 -20 17 -44v-7q0 -42 -67 -76q-39 -15 -90 -15q-24 0 -46 3q19 -12 19 -31q0 -39 -70 -39h-3q-50 0 -71 16q-29 -11 -55 -30q-59 -51 -59 -98v-4q0 -31 46 -37h11q70 0 157 75q18 23 35 23q19 0 23 -25q0 -22 -73 -74
q-77 -55 -160 -55q-97 0 -126 55q-11 19 -11 43v8q0 63 78 125q39 25 87 41l15 4v14q0 23 12 49q-32 32 -32 67v11q0 40 49 68q22 9 46 9zM212 402q0 -14 13 -29q40 33 75 45q-20 15 -43 15h-5q-40 0 -40 -31zM397 386q5 -22 5 -36q-1 -28 -12 -31v-1h2q34 0 72 21
q12 11 12 21v4q0 26 -52 26q-11 0 -27 -4zM298 329q39 -11 67 -11q-7 5 -17 41q-2 0 -3 6q-21 -11 -47 -36z" />
    <glyph glyph-name="F" unicode="F" horiz-adv-x="499" 
d="M315 410h9q68 0 227 -47q10 -3 15 -3q47 22 94 22h15q59 0 69 -37v-10q0 -32 -39 -44q-16 -5 -34 -5q-38 0 -95 8q-54 -50 -65 -68l-38 -50h2q20 0 23 11q24 26 43 26h8q25 -7 25 -23v-7q0 -13 -31 -41q-21 -33 -38 -48q-15 -9 -28 -9q-19 0 -22 24v1l2 13h-10
q-20 0 -20 -5q-139 -158 -298 -158q-109 0 -127 70l-2 14v8q0 37 42 56q8 3 20 3h5q32 0 46 -37l1 -9q0 -22 -22 -48h1l18 -1q40 0 98 14q50 16 110 93h-2l-22 -3h-2q-24 3 -24 24v2q0 19 37 25q14 4 35 4h18q53 66 86 102l29 26q-29 15 -130 35l-28 1q-88 0 -132 -41
q-16 -19 -16 -46v-2q0 -52 36 -67q30 -10 30 -26v-3q0 -18 -25 -22h-5q-30 2 -73 39q-29 33 -29 79q0 110 130 148q39 12 83 12z" />
    <glyph glyph-name="G" unicode="G" horiz-adv-x="346" 
d="M178 444h8q63 0 112 -40q75 31 130 31q64 0 85 -40q7 -15 7 -34q0 -91 -143 -161q-74 -32 -154 -32h-15q-33 0 -65 9q-35 -56 -35 -91v-4q0 -22 20 -25h2q54 0 143 94q25 23 46 23h4q28 0 34 -20l1 -7q0 -14 -29 -46l-4 -6v-1l52 42q7 5 16 5q23 -5 23 -20v-6
q0 -14 -42 -47q-66 -56 -136 -92q-32 -50 -103 -135q-52 -59 -88 -87q-89 -75 -149 -75h-3q-40 0 -53 32q-4 8 -4 17v7q0 92 264 229q55 33 59 37l3 4q-24 -7 -50 -7h-1q-71 0 -94 52q-8 20 -8 43v0q0 58 49 126q-41 40 -41 85v10q0 83 101 122q31 8 58 8zM76 307
q0 -26 21 -44q70 70 113 94q24 16 27 16v2q-30 15 -55 15h-13q-42 0 -78 -37q-15 -20 -15 -46zM334 354q14 -28 14 -58q0 -25 -21 -28h-4q-16 0 -27 36l-12 22q-36 -26 -86 -77l-18 -22v-1q29 -4 48 -4h11q79 0 167 62q60 52 60 76v5q0 17 -35 17h-5q-41 0 -92 -27v-1z
M-70 -248l1 -1h4q52 0 154 137h-1q-158 -86 -158 -136z" />
    <glyph glyph-name="H" unicode="H" horiz-adv-x="590" 
d="M821 439h9q55 0 73 -42q3 -10 3 -18q0 -17 -19 -25h-10q-10 0 -19 20q0 11 -31 14q-67 0 -185 -144v-1q52 0 66 -12q6 -8 6 -15q-4 -24 -23 -24v0h-18h-36h-37q-77 -100 -86 -132h1q23 3 81 51q21 24 36 24h1q16 0 23 -16l1 -8q0 -17 -37 -45q-75 -65 -125 -65h-5
q-48 0 -60 44q-1 4 -1 15v5q0 43 61 127v0h-70l-72 -82q-115 -120 -236 -120q-78 0 -107 60q-5 15 -5 28v7q0 42 43 62q8 3 23 4q17 0 37 -14q16 -14 16 -38q0 -25 -25 -51l-1 -1v-1q7 -5 22 -5q82 0 191 149v1l-32 -1h-6q-18 0 -22 24v2q0 26 53 26q9 1 52 3q19 26 93 99
h-136q-120 0 -154 -71q-4 -12 -6 -32q0 -42 48 -66q29 -7 29 -27q0 -19 -28 -22h-3q-30 0 -73 39q-34 37 -34 85q0 111 137 149q38 8 69 8h21l136 -8h38q27 0 43 12q13 7 22 7q27 -4 27 -26q0 -12 -27 -35q-51 -54 -93 -110v-1h75q71 77 110 107q96 76 147 83q16 3 29 3z
" />
    <glyph glyph-name="I" unicode="I" horiz-adv-x="380" 
d="M615 430q27 -5 27 -28q0 -21 -30 -33q-21 -15 -43 -46q-37 -47 -109 -153q-152 -190 -329 -190q-95 0 -124 55q-7 16 -7 34v6q0 41 41 66q16 6 26 6h8q41 0 49 -40v-7q0 -38 -18 -49l-8 -2v-1q14 -8 30 -8h12q112 0 211 134l23 27v1q-11 -6 -25 -6h-8q-42 0 -57 39l-2 20
q0 103 265 156q38 10 65 19h3zM346 250l2 -2q6 0 26 11l9 2q22 -5 22 -22l83 102l3 2h-1q-51 -14 -83 -31q-61 -36 -61 -62z" />
    <glyph glyph-name="J" unicode="J" horiz-adv-x="165" 
d="M369 444h18q37 0 45 -27l1 -6q0 -17 -33 -41q-84 -77 -131 -133l-113 -136h1q36 28 65 55q7 4 15 4q21 0 24 -25q0 -25 -96 -89q-37 -25 -80 -45q-13 -3 -23 -19q-80 -98 -163 -161q-118 -87 -193 -87q-52 0 -67 34q-4 10 -4 21v3q0 80 203 170q69 32 147 61
q41 55 83 107v1q-19 0 -42 21q-18 22 -18 58q0 93 133 174q112 60 228 60zM71 199q0 -21 18 -21q9 0 16 -4q25 34 119 127q69 64 105 86v1h-1q-97 -21 -180 -83q-77 -63 -77 -106zM-281 -191v-4q0 -3 12 -3h7q66 0 172 130h-1q-114 -47 -163 -86q-27 -24 -27 -37z" />
    <glyph glyph-name="K" unicode="K" horiz-adv-x="533" 
d="M302 440h4q26 -3 26 -25q0 -11 -22 -33q-8 -14 -8 -26v-2q0 -23 39 -23h1q58 0 133 46l49 40q11 5 15 5h3q22 0 26 -27q0 -12 -24 -35q-51 -58 -90 -114l19 -5q16 5 56 52q105 144 208 144h5q62 0 73 -53l1 -14q0 -65 -96 -88q-11 -3 -25 -3h-9q-30 0 -53 17
q-38 -47 -72 -69q-30 -19 -45 -25q8 -18 8 -33v-4q0 -31 -36 -80l-8 -17v0q18 5 97 71q8 5 13 5h6q19 -4 19 -19v-5q0 -23 -87 -85q-41 -27 -74 -27h-3q-49 0 -60 41q-2 4 -2 12v8q0 36 59 111v0h-6q-20 0 -35 7q-37 -47 -83 -93q-102 -94 -207 -94h-11q-64 0 -95 48
q-11 20 -11 39v7q0 45 47 64q10 2 20 2q52 -7 52 -51q0 -26 -24 -50l-1 -1v-1l5 -1h8q57 0 93 30q45 36 93 95q42 54 82 101h-1q-20 -3 -38 -3q-93 0 -110 59l-2 17q0 54 60 81q9 4 18 4zM662 334q16 -6 32 -6q35 0 66 28q5 7 5 14v3q0 13 -18 13h-8q-34 0 -77 -52z" />
    <glyph glyph-name="L" unicode="L" horiz-adv-x="476" 
d="M339 460h10q81 0 143 -44q48 15 84 15q64 0 91 -44q6 -16 6 -29q0 -77 -136 -116q-52 -14 -120 -14h-10l-22 1l-62 -85q-18 -24 -37 -55q66 -17 90 -17q65 0 141 67q10 5 18 5q19 0 22 -23q0 -16 -35 -45q-73 -76 -153 -76q-61 0 -144 35l-23 10q-59 -45 -128 -45
q-56 0 -70 24q-4 6 -4 15v2q0 48 98 66q30 5 60 5l35 -2q43 51 71 101l24 35q-98 38 -98 102v3q0 73 91 101q29 8 58 8zM250 352q0 -33 72 -55q49 55 78 75l16 13q-35 15 -77 15q-54 0 -84 -30q-5 -11 -5 -18zM528 372q14 -27 14 -47q0 -18 -19 -25h-4q-18 0 -32 31l-7 11
h-1q-44 -41 -58 -63h1q107 0 169 55q14 18 14 31q0 11 -27 15l-5 1q-20 0 -45 -9z" />
    <glyph glyph-name="M" unicode="M" horiz-adv-x="767" 
d="M957 458h2q20 0 23 -30v-2q0 -33 -66 -97q-148 -159 -186 -219q-23 -36 -29 -52q17 8 51 33q36 38 51 38h1q24 -4 24 -24v-1q0 -17 -46 -52q-61 -55 -104 -55h-11q-38 0 -52 40l-2 16v20q0 20 26 57v1q-129 -116 -141 -125q-10 -6 -18 -6h-3q-23 0 -27 29v2q0 21 59 90
q16 21 21 29h-1q-71 -69 -101 -85q-161 -105 -293 -105q-98 0 -127 66q-8 20 -8 34v5q0 45 45 72q15 6 25 6h10q32 0 49 -33l2 -13v-4q0 -28 -34 -56l-3 -3v-1q17 -5 40 -5h5q106 0 287 126q53 39 174 154l28 25v1q-62 7 -125 7h-11q-71 0 -138 -30q-38 -20 -38 -65v-8
q0 -45 52 -61q21 -5 21 -25v-5q-5 -22 -23 -22h-8q-31 0 -72 36q-33 36 -33 83v3q0 107 127 150q55 15 110 15q68 0 196 -23q30 32 52 32q31 -4 31 -25v-7l-3 -11h7q119 0 157 54q7 26 27 26zM724 318q-24 -33 -60 -93h1q107 89 111 89v2l-5 -1q-28 1 -47 3z" />
    <glyph glyph-name="N" unicode="N" horiz-adv-x="625" 
d="M963 478h6q47 0 69 -47q5 -15 5 -25q0 -21 -15 -29l-8 -1h-3q-15 0 -24 25q-10 8 -31 8q-84 0 -197 -139q-92 -109 -173 -229q-19 -28 -33 -41q-9 -6 -20 -6q-21 0 -29 24l-1 7q0 9 16 61q17 75 17 100q-5 -4 -30 -36q-35 -39 -69 -63q-63 -47 -120 -75q-45 -21 -92 -32
q-39 -10 -110 -10q-59 0 -102 50q-19 26 -19 51v5q0 39 40 66q15 8 28 8h8q37 0 50 -32q2 -10 2 -19q0 -27 -34 -57q0 -4 35 -6h7q92 0 218 83q39 25 112 97l29 31q41 53 64 93q38 82 82 82q30 -3 30 -27q0 -9 -14 -33q-10 -27 -16 -75l-7 -62q59 80 119 147q59 55 88 67
q68 39 122 39z" />
    <glyph glyph-name="O" unicode="O" horiz-adv-x="324" 
d="M369 435h13q68 0 89 -49q5 -12 5 -31q0 -37 -31 -61q-7 -63 -67 -147q-47 -55 -77 -75q-99 -72 -186 -72q-83 0 -108 64q-7 21 -7 47v8q0 107 132 222q126 94 237 94zM77 103q0 -35 15 -44q5 -3 11 -4v0q-6 21 -6 44q0 76 83 172q18 26 58 67q-33 -19 -75 -60
q-86 -95 -86 -175zM155 84v-2q3 -24 9 -24q41 10 109 78q113 126 113 197v3h-2q-46 0 -125 -73q-104 -110 -104 -179z" />
    <glyph glyph-name="P" unicode="P" horiz-adv-x="511" 
d="M722 440h5q72 0 94 -39q4 -8 4 -18q-5 -23 -22 -23q-12 0 -26 17q-13 8 -37 8h-4q-48 0 -108 -40q26 -29 26 -73q0 -100 -123 -144q-36 -10 -65 -10h-13l-17 1q-52 -50 -81 -66q-8 -6 -12 -7v-1l28 -3q39 0 68 23q7 5 15 5q19 0 22 -25q0 -27 -63 -56q-25 -9 -54 -9h-2
q-48 0 -114 18q-56 -18 -138 -18h-9q-74 0 -92 33q-4 8 -4 16v5q0 43 69 52q11 2 30 2q47 0 158 -24q23 14 62 53l5 6h-1q-45 -23 -92 -23q-94 2 -120 60q-7 19 -7 36v2q0 124 127 183q95 43 191 43h12q74 0 150 -31q90 47 138 47zM184 189q0 -28 25 -36q14 -2 25 -2
q68 0 125 78q12 21 12 39t-17 18h-6q-28 0 -56 -37q-7 -3 -10 -3h-5q-16 0 -21 22v5q0 19 41 50q24 15 51 15h8q48 0 66 -39q7 -14 7 -34l-2 -21q39 47 97 100q-62 14 -88 14q-142 0 -220 -81q-32 -41 -32 -88zM482 175v-1q37 10 63 40q33 35 33 69v9l-2 14v0
q-22 -24 -94 -131z" />
    <glyph glyph-name="Q" unicode="Q" horiz-adv-x="489" 
d="M451 433h10q84 0 127 -60q13 -26 13 -49v-12q0 -83 -128 -174q-59 -38 -128 -68q0 -3 30 -4q72 0 153 74l11 3h4q22 -5 22 -22v-2q0 -20 -41 -49q-85 -70 -157 -70h-4q-53 0 -135 23q-64 -23 -131 -23h-5q-71 0 -88 32q-4 10 -4 16v6q0 40 59 53q22 6 47 6h23
q53 0 125 -21q53 21 107 56q3 3 5 3v1h-1q-35 -14 -79 -14q-65 0 -87 49q-6 14 -7 38q0 59 54 122q55 55 144 78q33 8 61 8zM247 226q0 -37 35 -37h7q51 0 107 57q19 21 19 38v6q-6 8 -17 8q-20 -4 -47 -23q0 -6 -14 -10h-4q-20 0 -23 24q0 23 45 51q24 9 45 9q55 0 71 -43
q3 -12 3 -22v-9q0 -15 -8 -37q47 51 47 93v6q0 46 -56 46q-84 0 -176 -93q-34 -37 -34 -64z" />
    <glyph glyph-name="R" unicode="R" horiz-adv-x="589" 
d="M729 458h9q64 0 82 -35q5 -10 5 -19q-4 -25 -22 -25h-3q-11 0 -25 20q-17 9 -38 9q-40 0 -97 -26q31 -35 31 -72q0 -78 -96 -112q-5 0 -5 -2q6 -13 6 -28q0 -30 -41 -87l-7 -14h1q17 4 104 76l9 2q24 -5 24 -22v-1q0 -20 -47 -57q-67 -58 -116 -58q-44 0 -60 35
q-4 14 -4 25q0 37 61 113l2 9v1h-13l-9 1q-48 -70 -126 -124h1q9 1 40 23l6 1h1q17 0 23 -19v-7q0 -26 -58 -52q-26 -10 -58 -10q-25 0 -70 11q-53 -14 -119 -14h-6q-114 0 -114 48v7q0 41 66 51l28 2h7q39 0 128 -23l30 -7q25 10 93 88q56 78 129 159l46 42q-28 4 -57 4
q-86 0 -170 -47q-53 -34 -70 -86q-4 -12 -4 -24v-8q0 -26 16 -35l14 -5l1 1h25q17 0 20 -24v-2q0 -12 -21 -21q-14 -5 -25 -5h-3q-79 0 -101 78q-2 10 -2 21v5q0 95 117 166q94 50 200 50q66 0 125 -21q64 44 137 44zM514 241v-1q26 0 61 30q21 23 21 51q0 10 -6 22
q-15 -15 -76 -102z" />
    <glyph glyph-name="S" unicode="S" horiz-adv-x="415" 
d="M666 459h6q31 0 43 -30l2 -14q0 -62 -135 -115q-7 0 -20 -31q-31 -61 -53 -98q-110 -170 -315 -170q-71 0 -119 26q-49 -48 -60 -75q-9 -12 -22 -12h-1q-18 0 -22 24v2q4 38 61 98q-26 31 -26 74q0 102 122 158q59 23 113 23q83 0 137 -49v0q57 26 113 48q23 40 77 92
q55 49 99 49zM80 143v-7q2 -24 5 -24l43 31v1q-9 17 -9 31v3q3 25 20 25h6q17 0 24 -30l2 -2q56 33 142 71q-27 17 -69 17h-14q-69 0 -125 -51q-25 -31 -25 -65zM394 220q2 -5 2 -16q0 -77 -107 -110q-22 -5 -40 -5h-13q-29 0 -63 14l-49 -35q20 -10 57 -10q102 0 141 31
q41 23 83 84q40 64 40 69h-1zM230 137q9 -3 22 -3q42 0 74 31q9 13 10 28q-84 -42 -106 -56z" />
    <glyph glyph-name="T" unicode="T" horiz-adv-x="566" 
d="M696 529h9q83 0 121 -50q15 -23 15 -50q0 -94 -126 -111l-53 -3l-22 2q-23 -4 -56 -42q-18 -21 -66 -88q-35 -48 -93 -105q-21 -19 -28 -21v-1h2q118 0 184 59q23 20 36 20q18 0 23 -25q0 -16 -32 -37q-82 -77 -228 -77q-94 0 -176 12q-54 -9 -100 -9h-29q-60 0 -73 20
q-4 7 -4 12v6q0 22 34 36q25 7 64 7q34 0 133 -12q37 6 91 39q31 18 107 108q64 77 99 112q-129 24 -139 24q-28 4 -52 4h-9q-69 0 -106 -36q-11 -17 -11 -33q0 -28 53 -41l12 -1h9q44 0 62 25q3 7 3 19l-10 15l-1 8q0 18 24 23q18 0 39 -25q9 -17 9 -31q0 -61 -92 -81
q-22 -4 -44 -4q-63 0 -101 45q-16 21 -16 51q0 61 67 103q49 27 118 27h6q61 0 189 -22l10 -1q-5 8 -5 14v8q0 32 39 69q52 38 114 38zM579 396v-1q74 -10 111 -10q76 0 92 29q4 11 4 19q0 26 -71 37h-18q-74 0 -104 -51q-9 -23 -14 -23z" />
    <glyph glyph-name="U" unicode="U" horiz-adv-x="431" 
d="M616 433h4q32 -4 32 -32q0 -34 -68 -86l-106 -82q-107 -131 -117 -171q21 3 93 66q11 8 20 8q24 -4 24 -21v-2q0 -18 -32 -41q-74 -69 -124 -69h-6q-40 0 -56 35q-4 12 -4 19v13q-91 -70 -144 -70h-6q-44 0 -57 37l-2 16q0 38 42 96h-1q-18 -11 -38 -11h-2q-44 0 -62 38
q-6 15 -6 32v6q0 56 66 132q52 48 99 63q55 21 103 21q74 0 90 -51l2 -16v-7q0 -56 -107 -169q-57 -68 -72 -95q2 -4 6 -4h3q19 0 64 31q31 15 142 143q80 85 107 106q79 65 113 65zM57 203q0 -14 9 -14h11q6 0 24 14q6 4 11 4h5q16 0 20 -24q139 155 145 184q0 4 -14 5h-5
q-105 0 -195 -133q-11 -22 -11 -36z" />
    <glyph glyph-name="V" unicode="V" horiz-adv-x="384" 
d="M322 455h8q90 0 111 -63q6 -25 6 -48q0 -95 -127 -213l-35 -29h1q50 22 104 58q39 27 103 89q52 59 58 78l-12 77v5q4 33 32 33h1q35 0 46 -35q2 -8 2 -18v-7q0 -76 -103 -196q-63 -61 -101 -82q-58 -39 -129 -64q-96 -28 -139 -28q-36 -2 -65 -8q-17 -4 -36 -4h-6
q-41 0 -41 28v2q0 37 83 37l25 -3q29 11 92 65q79 73 97 102q59 77 59 127q0 32 -30 32h-7q-63 0 -137 -70q-44 -46 -44 -89v-9q0 -16 16 -16h2q39 0 94 69q18 27 18 44v6q-8 11 -8 19q5 23 22 23h2q20 0 35 -36q2 -7 2 -19q0 -66 -77 -125q-47 -31 -87 -31q-67 0 -83 64
l-1 16q0 64 66 136q49 44 94 63q46 20 89 20z" />
    <glyph glyph-name="W" unicode="W" horiz-adv-x="465" 
d="M663 457h4q40 0 55 -43l1 -13v-6q0 -79 -229 -265q-133 -116 -140 -118q-11 -6 -23 -6q-27 4 -27 27v5q0 9 15 29q12 17 38 100q-119 -91 -226 -161q-13 -6 -19 -6q-25 0 -31 24v8q0 15 30 43q89 99 116 149q56 87 56 132v5q-1 18 -14 18q0 2 -19 3q-70 0 -143 -67
q-45 -54 -45 -91v-6q0 -14 21 -16q26 0 72 44q39 40 39 73v1q-8 8 -8 18q0 17 20 25h7q16 0 31 -31q2 -9 3 -23q0 -64 -69 -121q-52 -36 -89 -36h-11q-58 0 -75 52q-3 9 -3 20v7q0 90 111 165q67 41 139 41q92 0 117 -62q5 -19 5 -33v-10q0 -48 -55 -127v-1q59 43 69 53
q51 148 123 148q34 0 43 -35l1 -9q0 -39 -51 -83q-5 -8 -37 -36l-21 -77q71 57 151 138q58 70 58 99v1q-19 12 -19 28q4 25 22 25z" />
    <glyph glyph-name="X" unicode="X" horiz-adv-x="450" 
d="M428 432h8q61 0 81 -42l4 -19h1q80 57 142 57h6q41 0 56 -36q2 -3 3 -15q0 -57 -92 -97q-18 -7 -39 -9h-2q-21 0 -28 16v7q0 21 38 29q34 12 42 27q3 4 5 16q-2 6 -7 6q-31 0 -93 -53q-78 -73 -95 -101q-44 -56 -72 -105q-19 -37 -19 -54h3q32 0 111 71q9 8 20 8
q23 -3 23 -24t-66 -69q-56 -44 -105 -44h-4q-50 0 -66 44l-1 14h-1q-72 -69 -173 -69q-80 0 -104 60q-4 15 -4 27v5q0 43 41 67q16 8 36 8q37 0 51 -35v-12q0 -21 -32 -51v-3q3 -6 21 -6q121 0 271 213q50 75 50 95v3q0 8 -20 8q-79 0 -140 -72q-55 -57 -55 -91v-1
q0 -14 8 -14q17 0 42 17h9q15 0 20 -23q0 -21 -37 -40q-14 -5 -31 -5q-47 0 -63 37q-6 14 -6 29v8q0 88 107 166q83 52 156 52z" />
    <glyph glyph-name="Y" unicode="Y" horiz-adv-x="472" 
d="M696 444h4q27 0 36 -26l1 -7q0 -34 -48 -74l-56 -51q-10 -12 -44 -45q-102 -131 -149 -197l-24 -34q0 -1 24 -5q57 -18 77 -54q14 -24 14 -49v-14q0 -42 -28 -48h-2q-19 0 -24 18v9q4 16 4 28q0 46 -59 61q-17 3 -30 3h-12q-19 -33 -118 -146q-124 -123 -200 -123h-5
q-40 0 -53 32q-4 8 -4 17v8q0 71 143 180q52 34 92 51q39 15 82 25l37 53h-1q-68 -45 -109 -45h-9q-48 0 -56 46v11q0 35 42 93h-1q-21 -12 -37 -12h-4q-46 0 -63 41q-5 14 -5 30q0 62 64 134q49 46 97 65q57 23 106 23q76 0 91 -52l3 -19q0 -61 -109 -175q-82 -96 -93 -124
q41 13 119 77q65 62 119 129q66 78 112 124q48 42 76 42zM168 215q0 -15 9 -15h3q18 0 38 17l6 1h1q20 0 23 -25h1l104 120q39 49 39 62v3q-5 9 -19 9q-95 0 -189 -129q-16 -27 -16 -43zM89 -235l1 -1h1q49 0 155 148v1q-54 -21 -106 -68q-52 -52 -52 -80h1z" />
    <glyph glyph-name="Z" unicode="Z" horiz-adv-x="526" 
d="M497 444q34 0 34 -26q0 -15 -15 -21q-38 -5 -50 -15q-15 -12 -15 -29q0 -12 29 -12q41 0 90 28q61 67 94 67h8q21 0 28 -23v-5q0 -20 -44 -54q-158 -142 -179 -163v-1q39 -16 59 -55l8 -20q47 34 53 34h6q20 -4 20 -25v-2q0 -17 -30 -38l-46 -36q-3 -38 -33 -88
q-20 -34 -82 -96q-89 -75 -146 -102q-124 -70 -207 -70q-57 0 -75 40q-4 12 -4 19v7q0 112 331 252q96 45 127 62l1 18v2q0 38 -17 47q-15 8 -38 8h-5q-3 0 -38 -26q-56 -38 -81 -38h-4q-25 0 -31 28v3q0 35 74 68q19 8 51 15l97 78l-6 -1h-14q-65 0 -85 36q-7 14 -7 31
q0 62 95 95q24 8 47 8zM99 -215q0 -7 15 -7h8q58 0 155 71q77 62 103 107v1q-168 -73 -211 -102q-70 -40 -70 -70z" />
    <glyph glyph-name="bracketleft" unicode="[" 
 />
    <glyph glyph-name="backslash" unicode="\" 
 />
    <glyph glyph-name="bracketright" unicode="]" 
 />
    <glyph glyph-name="asciicircum" unicode="^" 
 />
    <glyph glyph-name="underscore" unicode="_" 
 />
    <glyph glyph-name="grave" unicode="`" 
 />
    <glyph glyph-name="a" unicode="a" horiz-adv-x="275" 
d="M188 204h7q26 0 41 -18q20 17 39 17h13q24 -3 24 -19v-3q0 -13 -58 -77l-26 -36v-1q20 11 75 62q10 7 16 7h3q18 -3 18 -18q0 -18 -39 -49q-75 -69 -123 -69h-7q-27 0 -39 26q-44 -26 -77 -26h-5q-40 0 -50 38l-1 6v6q0 13 7 33l-3 9v4q3 25 90 76q60 32 95 32zM75 58
q1 -8 5 -8q22 4 73 50q44 44 44 58v0q-25 -6 -100 -64q-22 -23 -22 -36z" />
    <glyph glyph-name="b" unicode="b" horiz-adv-x="279" 
d="M512 581h3q31 0 43 -26q3 -10 3 -17q0 -50 -101 -138q-101 -89 -167 -137l-88 -70h1q27 11 49 11q43 0 55 -34l2 -15q0 -46 -63 -104q-65 -51 -119 -51q-32 0 -42 21q-4 7 -4 14v5q-35 -39 -57 -39l-11 -1q-27 3 -27 20v5q0 15 30 61v1q-7 7 -7 12v3q0 14 34 41
q44 38 55 56q72 95 207 238q140 144 204 144zM287 319h1q51 36 167 148q44 48 44 62h-1q-36 -7 -211 -210zM130 82q0 -3 9 -4q25 3 59 25q35 27 35 50h-2q-30 0 -101 -71z" />
    <glyph glyph-name="c" unicode="c" horiz-adv-x="214" 
d="M181 207h6q32 0 44 -25q5 -9 5 -20q0 -30 -30 -41l-18 -2q-31 3 -31 22v7q-63 -53 -72 -95l3 -2h6q55 0 109 54q24 20 35 20q20 -4 20 -19v-4q-6 -29 -82 -77q-45 -25 -105 -25h-1q-52 0 -66 33l-3 19q2 18 5 31q-6 6 -6 13v3q0 23 90 77q59 31 91 31z" />
    <glyph glyph-name="d" unicode="d" horiz-adv-x="278" 
d="M491 458h5q30 -2 30 -24q0 -10 -24 -31q-99 -104 -165 -192q-58 -69 -106 -140v-1q34 24 72 58q14 8 16 8h7q11 0 15 -17v-5q0 -17 -81 -79q-51 -34 -78 -34h-10q-29 0 -39 27q-49 -28 -79 -28q-41 0 -53 37l-1 9v7q0 15 8 30l-4 9v5q1 24 92 78q60 30 99 30q21 0 36 -13
q73 97 192 223q39 43 68 43zM77 51h1q24 0 103 82q16 21 16 26q-32 -5 -81 -52q-39 -41 -39 -56z" />
    <glyph glyph-name="e" unicode="e" horiz-adv-x="203" 
d="M187 207h3q30 0 43 -31l1 -10q0 -60 -147 -104l-3 -10l5 -1q38 0 105 50q40 39 46 39h8q19 -4 19 -19v-2q-4 -28 -97 -88q-55 -31 -100 -31q-48 0 -64 28q-6 11 -6 23v5q0 10 6 28q-5 5 -5 12v3q0 22 76 69q67 39 110 39zM94 117v-1l5 -1h2q36 0 71 33q7 7 7 11l-2 2h-5
q-27 0 -64 -27q-14 -11 -14 -17z" />
    <glyph glyph-name="f" unicode="f" horiz-adv-x="159" 
d="M520 584h3q35 0 43 -31l1 -9v-2q0 -39 -51 -91q-72 -72 -110 -99q-175 -142 -224 -196l-52 -53v-1h1q16 -3 54 25q19 12 29 13h2q14 0 20 -16v-6q4 -35 -81 -86q-49 -19 -82 -27q-15 -9 -21 -32q-33 -105 -93 -204q-30 -53 -82 -108q-41 -37 -67 -37q-40 5 -40 39v5
q8 103 256 422q-9 5 -9 17q0 13 35 40l52 44q100 126 178 214q169 179 238 179zM279 304l1 -1q15 3 185 175q12 15 12 21l-1 4q-18 -3 -99 -86q-98 -109 -98 -113zM-153 -305h1q10 3 36 40q89 141 89 155v2h-1q-27 -25 -45 -54q-67 -99 -80 -143z" />
    <glyph glyph-name="g" unicode="g" horiz-adv-x="279" 
d="M195 214h8q31 0 48 -19q15 12 30 12h3q33 0 33 -25v-1q0 -7 -60 -84l-14 -19v-1q32 24 68 56q15 8 21 8q14 0 18 -21q0 -16 -40 -45q-65 -57 -133 -94q-8 -5 -25 -32q-70 -95 -117 -148q-85 -87 -125 -113q-90 -64 -143 -64q-45 0 -59 32q-3 8 -3 15v5q0 97 312 274
l80 50l8 11h-1q-20 -7 -36 -7h-9q-34 0 -47 34l-2 15q0 15 8 34q-2 4 -3 12q0 19 61 64q80 51 119 51zM91 56v-1q23 4 81 59q36 38 36 48h-1q-24 -5 -88 -71q-17 -18 -28 -35zM-193 -294l1 -3h5q40 0 139 115l44 56h-1q-188 -112 -188 -168z" />
    <glyph glyph-name="h" unicode="h" horiz-adv-x="296" 
d="M503 582h4q34 0 43 -29q2 -4 2 -10v-6q0 -46 -92 -129q-94 -92 -160 -147q-53 -50 -67 -60v0q15 3 28 3q37 0 45 -32v-11q0 -24 -46 -74l-11 -14v-1q24 15 72 56q12 8 19 8q19 -4 19 -18v-3q0 -19 -76 -75q-55 -40 -93 -40q-36 0 -45 28v6v8q0 26 44 80v1
q-56 -39 -127 -100q-31 -23 -49 -23q-33 0 -33 21v4q0 13 31 61v1q-7 7 -7 12v5q0 15 55 59q24 20 35 39q48 63 135 160q138 148 172 170q67 50 102 50zM280 320h1q55 44 152 138q58 59 58 77h-1q-30 -4 -169 -165z" />
    <glyph glyph-name="i" unicode="i" horiz-adv-x="160" 
d="M194 262h6q20 0 31 -20q1 -4 1 -11v-7q0 -30 -45 -50q-4 -10 -59 -72l-22 -31v0q24 18 72 58q10 7 19 7q19 -2 19 -19v-1q0 -19 -81 -81q-48 -35 -81 -35h-6q-33 0 -43 30l-1 10q0 20 10 37q-10 0 -14 16v6q1 17 77 73q44 27 66 30l-1 4v11q0 29 37 43z" />
    <glyph glyph-name="j" unicode="j" horiz-adv-x="132" 
d="M185 273h7q30 -4 30 -28v-1q0 -25 -39 -49q-10 -5 -14 -5l1 -1v-4q0 -14 -22 -37q-41 -48 -60 -75h1q38 26 79 62q8 5 15 5q21 -4 21 -21q0 -25 -130 -110l-59 -37q-55 -83 -131 -171q-77 -79 -120 -109q-91 -68 -145 -68h-10q-39 0 -51 33l-2 14v8q0 85 281 253l104 65
l59 80l-11 6q-5 9 -5 14v3q0 21 87 81q38 24 60 24h2l-1 14q0 40 36 52zM-354 -301v-5h4h1q30 0 109 78q92 84 121 121v1q-39 -30 -186 -137q-49 -40 -49 -58z" />
    <glyph glyph-name="k" unicode="k" horiz-adv-x="300" 
d="M503 582h6q34 0 44 -29l2 -14q0 -39 -63 -103q-85 -81 -163 -139q-89 -69 -122 -98v0q27 11 44 11h9q57 0 57 -48v-5q0 -42 -77 -49q-18 -1 -18 -9l-1 -8v-8q0 -21 8 -21h2q18 4 85 65q13 9 20 9h5q12 0 16 -19q0 -16 -32 -40q-80 -77 -134 -77q-34 0 -47 33q-3 11 -3 19
v27l1 6h-1q-16 -9 -60 -50q-41 -35 -65 -35q-28 0 -33 19v7q0 14 30 62q-7 6 -7 11v5q0 15 55 59q23 20 42 47q50 67 147 173q114 119 136 135q80 64 117 64zM284 322h1q199 168 209 214q-20 -3 -73 -58q-90 -94 -137 -156z" />
    <glyph glyph-name="l" unicode="l" horiz-adv-x="142" 
d="M495 584h5q35 0 44 -32l1 -10q0 -60 -142 -174l-181 -152q-91 -90 -96 -105q-24 -29 -31 -43l84 68l11 5q26 -3 26 -22v-1q0 -16 -27 -41q-65 -77 -137 -77q-30 0 -47 22q-5 9 -5 18v6q0 18 12 43h-1q-9 7 -9 15v1q0 11 19 30q27 37 64 74l94 100q52 64 154 167
q92 88 124 99q19 9 38 9zM291 339v-1q185 156 194 200h-1q-31 -7 -173 -175z" />
    <glyph glyph-name="m" unicode="m" horiz-adv-x="511" 
d="M145 203h7q26 0 36 -26q1 -4 1 -14l-1 -12q69 52 107 52h6q37 0 45 -31l1 -7l-1 -8h1q63 46 101 46h6q37 0 44 -32v-6q0 -27 -35 -66l-22 -28q27 18 71 56q12 6 21 9q18 -4 18 -15v-7q-1 -22 -83 -81q-49 -33 -81 -33h-7q-34 0 -42 28q-1 0 -2 11q0 7 11 46q0 3 -7 6
q-8 0 -61 -48q-48 -43 -71 -43h-6q-29 3 -29 21v3q0 10 16 41l5 16q-2 4 -6 4q-20 0 -65 -45q-44 -40 -68 -40h-5q-25 0 -30 18v6q0 16 44 78h-1q-26 -28 -42 -28q-19 4 -19 18v5q0 12 33 39q70 67 110 67z" />
    <glyph glyph-name="n" unicode="n" horiz-adv-x="332" 
d="M131 203h6q29 0 38 -29v-11l-1 -12q69 52 108 52h6q33 0 43 -26l1 -9v-7q0 -24 -46 -75l-11 -15v-1q5 0 74 59q11 7 17 7q21 -4 21 -19v-3q0 -13 -38 -42q-80 -72 -129 -72h-7q-33 0 -42 29v11q0 19 27 62v3q-16 0 -109 -82q-30 -23 -48 -23h-7q-28 3 -28 20v4
q0 16 44 78h-1q-26 -28 -42 -28q-19 4 -19 18v5q0 12 33 39q70 67 110 67z" />
    <glyph glyph-name="o" unicode="o" horiz-adv-x="238" 
d="M185 208h3q7 0 15 -5l12 3q20 0 36 -31q4 -10 4 -21q0 -14 -6 -29q18 13 25 13h6q11 0 15 -16l1 -4q0 -18 -59 -59q-29 -16 -44 -16l-11 1h-2l-42 -25q-40 -19 -72 -19q-47 0 -61 33q-3 9 -3 15v8q0 12 4 25q-9 6 -9 15v3q1 25 96 80q48 21 68 25q3 1 24 4zM74 57v-4
q0 -6 8 -6q27 6 64 47q11 44 38 62l7 4v2l-3 1q-55 -18 -100 -76q-14 -21 -14 -30z" />
    <glyph glyph-name="p" unicode="p" horiz-adv-x="305" 
d="M217 289h9q23 -3 23 -19v-4q0 -9 -55 -73l-30 -37q62 51 104 51h9q32 0 42 -28l1 -9q0 -28 -37 -66l-29 -34h1q29 18 81 64q10 5 15 5h2q18 -3 18 -17v-5q-1 -11 -76 -75q-53 -39 -91 -39h-5q-33 0 -43 26q-3 7 -3 14q0 34 46 80v1q-48 -40 -76 -78q-148 -183 -206 -272
q-55 -81 -102 -133q-20 -17 -36 -17q-27 0 -38 27q-2 4 -2 14v5q0 35 97 166q70 99 179 243q-14 0 -17 19q0 14 47 54q133 126 142 128q15 9 30 9z" />
    <glyph glyph-name="q" unicode="q" horiz-adv-x="272" 
d="M193 207h4q25 0 41 -17q18 17 33 17h6q24 0 30 -18l1 -7q0 -12 -28 -41l-51 -67h1q61 64 75 64l6 1q13 0 18 -16v-4q0 -11 -55 -63q-90 -94 -145 -168q-47 -63 -150 -207q-42 -57 -70 -57h-1q-32 0 -39 32v9q0 24 46 95q53 85 176 249q-19 -6 -33 -6h-6q-37 0 -49 35
l-2 14q0 16 8 34q-4 7 -4 12q0 27 97 81q55 28 91 28zM78 69v-1q0 -7 5 -10h1q13 0 57 40q45 41 47 53v2l-3 1q-34 0 -92 -57q-15 -17 -15 -28z" />
    <glyph glyph-name="r" unicode="r" horiz-adv-x="219" 
d="M113 241h7q24 0 32 -23v-3q0 -12 -11 -17v-1q45 0 52 -31v-5q0 -23 -34 -54q-21 -22 -30 -35h1q48 36 75 62q6 3 11 3h2q21 -3 21 -20q0 -22 -86 -84q-46 -33 -84 -33q-37 0 -45 32l-1 8q0 44 86 112v2l-6 -1l-9 1q-11 -13 -75 -72q-10 -6 -15 -6h-6q-18 4 -18 18v5
q0 10 33 37l45 44l-1 12v1q0 33 44 46z" />
    <glyph glyph-name="s" unicode="s" horiz-adv-x="262" 
d="M218 246h6q31 0 36 -22v-5q0 -25 -46 -45v-1l1 -50l-3 -24l49 38l11 2q14 0 20 -15v-7q0 -20 -88 -79q-64 -38 -129 -38q-57 0 -73 46l-2 15v6q0 44 43 70q12 5 24 5l17 -2q45 31 92 70q14 36 42 36zM60 48l5 -2h5q33 0 61 71h-1l-27 -17q-3 -13 -19 -28q-24 -16 -24 -24
z" />
    <glyph glyph-name="t" unicode="t" horiz-adv-x="185" 
d="M253 339h3q29 -5 29 -21v-6q0 -6 -24 -26q-32 -35 -72 -84h22q26 -2 26 -19v-5q0 -9 -13 -19q-5 -2 -9 -2h-44q-21 0 -21 -4q-34 -44 -56 -88v-1v0q27 13 73 54q16 18 29 18h1q20 -2 20 -15v-7q0 -16 -72 -71q-53 -43 -95 -43h-6q-32 0 -42 26l-2 13q0 19 9 37
q-14 6 -14 17v5q0 12 29 34l25 24q-15 5 -15 17v3q0 15 15 21q11 4 31 4h14q36 45 104 111q34 27 55 27z" />
    <glyph glyph-name="u" unicode="u" horiz-adv-x="300" 
d="M152 203h10q20 0 25 -18v-5q0 -14 -59 -83l-7 -13v0q23 7 137 103q18 16 41 16h5q33 0 33 -21v-2q0 -14 -29 -44q-47 -56 -47 -63q23 15 67 55q10 7 20 7h3q12 0 15 -17v-4q0 -21 -88 -84q-43 -30 -73 -30h-7q-35 0 -42 31l-1 7v9q-66 -47 -99 -47h-7q-32 0 -44 28l-1 11
v1q0 15 10 35q-14 6 -14 17v6q1 17 79 75q44 30 73 30z" />
    <glyph glyph-name="v" unicode="v" horiz-adv-x="272" 
d="M146 207q30 0 41 -27l3 -17q0 -32 -33 -74h1q37 19 37 25q2 16 27 56q28 37 51 37h4q25 0 28 -32q-2 -28 -26 -60h1q28 23 38 24q18 0 23 -11q3 -4 3 -9q0 -21 -60 -57q-21 -11 -42 -11q-24 0 -35 12q-109 -63 -160 -63q-27 0 -30 33v0q0 15 20 33l43 52v1
q-14 -8 -47 -38l-11 -4h-4q-19 4 -19 19v4q0 11 26 32q74 75 121 75z" />
    <glyph glyph-name="w" unicode="w" horiz-adv-x="410" 
d="M159 205q35 0 35 -21v-2q0 -13 -39 -50q-33 -34 -41 -49h1q21 3 79 55q64 58 89 58h8q23 0 29 -12l2 -8v-1q0 -16 -35 -54q-31 -38 -36 -56v-1q56 25 67 38q0 33 45 85q20 18 35 18h3q25 0 28 -32v-2q0 -26 -41 -70h1q21 13 46 33q6 3 10 3q22 -2 22 -18q0 -14 -44 -51
q-31 -19 -56 -19q-13 0 -27 6q-76 -55 -133 -55q-39 0 -53 38q-3 0 -37 -23q-26 -15 -63 -15t-43 32l-1 7v1q0 15 8 36q-13 0 -18 16v6q0 17 60 62q50 45 99 45z" />
    <glyph glyph-name="x" unicode="x" horiz-adv-x="300" 
d="M155 204h10q36 0 51 -29q29 26 58 26q33 0 42 -26q3 -5 4 -22q0 -12 -6 -23q13 0 17 -18q0 -21 -49 -56q-64 -56 -116 -56q-38 0 -54 27q-34 -27 -57 -27q-41 0 -53 32l-2 13v8q0 12 6 30q-4 5 -4 13q3 26 90 89q35 19 63 19zM67 94q17 -6 17 -23v-1v-5q55 65 61 90h-2
q-21 -7 -76 -61zM181 51h2q32 0 101 65h-2q-30 0 -35 23v3q-50 -52 -63 -81z" />
    <glyph glyph-name="y" unicode="y" horiz-adv-x="300" 
d="M157 207h9q17 0 26 -16v-6q0 -9 -73 -103l-3 -3v-1q46 29 153 118q15 11 34 11h5q23 0 30 -13l2 -8v-5q0 -10 -27 -41l-49 -66v-1q67 65 74 65l5 1h4q16 0 18 -20q0 -15 -54 -63q-95 -99 -137 -157q-68 -87 -143 -198q-49 -66 -74 -75l-12 -2v0q-29 0 -38 24l-2 11v6
q0 29 68 128q32 51 113 161l43 60h-1q-28 -15 -51 -15q-54 0 -62 26q-2 1 -4 18q0 12 10 35h-1q-16 5 -16 19v2q0 16 46 50q59 58 107 58z" />
    <glyph glyph-name="z" unicode="z" horiz-adv-x="236" 
d="M121 229h7q30 -3 30 -27q0 -10 -9 -15v-1h8q32 0 72 17l14 3q24 -5 24 -25q0 -36 -88 -92l-37 -19l15 -13q44 28 94 69q15 14 24 14q22 -4 22 -21q0 -20 -66 -64q-36 -27 -59 -40q0 -53 -40 -109q-65 -104 -225 -220q-92 -62 -151 -62q-42 0 -54 33q-3 7 -3 17v5
q0 53 95 132q92 78 178 130l132 83q0 13 -8 13q-24 0 -64 -37q-7 -6 -15 -6q-21 8 -21 22v6q0 32 128 90l25 12v1l-9 -1h-13q-20 0 -39 10q-51 -55 -61 -55l-7 -1q-20 3 -20 19v4q0 11 25 33l40 42q0 24 23 44q14 9 33 9zM-213 -296v-2q54 0 173 118q57 60 80 96h-1
q-252 -146 -252 -212z" />
    <glyph glyph-name="braceleft" unicode="{" 
 />
    <glyph glyph-name="bar" unicode="|" 
 />
    <glyph glyph-name="braceright" unicode="}" 
 />
    <glyph glyph-name="asciitilde" unicode="~" 
 />
    <glyph glyph-name="exclamdown" unicode="&#xa1;" 
 />
    <glyph glyph-name="cent" unicode="&#xa2;" 
 />
    <glyph glyph-name="sterling" unicode="&#xa3;" 
 />
    <glyph glyph-name="uniF001" unicode="&#xf001;" horiz-adv-x="1073" 
 />
    <glyph glyph-name="uniF001" unicode="&#xfb01;" horiz-adv-x="1073" 
 />
    <glyph glyph-name="uniF002" unicode="&#xf002;" horiz-adv-x="1081" 
 />
    <glyph glyph-name="uniF002" unicode="&#xfb02;" horiz-adv-x="1081" 
 />
  </font>
</defs>
</svg>
