<?xml version="1.0" encoding="utf-8"?>
<!-- Generator: Adobe Illustrator 15.0.0, SVG Export Plug-In . SVG Version: 6.00 Build 0)  -->
<!DOCTYPE svg PUBLIC "-//W3C//DTD SVG 1.1//EN" "http://www.w3.org/Graphics/SVG/1.1/DTD/svg11.dtd">
<svg version="1.1" id="图层_1" xmlns="http://www.w3.org/2000/svg" xmlns:xlink="http://www.w3.org/1999/xlink" x="0px" y="0px" width="83.035px" height="67.852px" viewBox="0 0 83.035 67.852" enable-background="new 0 0 83.035 67.852" xml:space="preserve">
    <path fill-rule="evenodd" clip-rule="evenodd" fill="#E60044" d="M0.338,28.497c-0.812-4.853-0.219-10.106,2.41-15.838
	C8.133,0.919,21.666-2.878,32.737,2.205c4.854,2.228,8.608,6.055,9.824,10.813c0.135,0.523,0.238,1.079,0.311,1.672
	c0.873,7.215-4.574,14.336-12.645,19.989c-2.152,1.509-4.525,2.948-7.017,4.273c3.942,4.089,8.38,7.693,12.69,11.387
	c3.953-1.937,9.369-4.785,14.987-8.897c-5.056-6.764-6.344-13.933-5.337-20.352c0.692-4.413,2.469-8.413,4.851-11.649
	c2.488-3.382,5.696-6.035,9.104-7.575c4.319-1.952,8.999-2.216,13.304-0.227l0.008-0.015c2.19,0.993,4.003,2.262,5.479,3.75
	c3.535,3.557,4.872,7.945,4.729,12.645c-0.119,3.869-1.271,7.826-2.949,11.526C76.89,36.563,67.6,47.089,61.646,51.699
	c-8.79,6.8-18.217,11.232-28.164,16.153c-7.328-6.671-15.959-13.242-22.683-20.544C7.566,43.797,1.092,33.013,0.338,28.497
	 M15.327,26.565c2.323-1.184,4.536-2.498,6.519-3.887c3.698-2.591,6.353-4.93,6.442-6.12c-1.072-1.251-2.754-2.04-4.43-2.136
	c-2.752-0.16-4.984,0.751-6.478,2.34C15.161,19.126,14.474,22.945,15.327,26.565 M61.807,31.458c1.746-2.217,3.561-5.019,4.89-7.942
	c0.812-1.79,2.382-5.914,1.216-7.786c-0.442-0.711-1.29-0.974-2.376-0.483c-1.155,0.521-2.319,1.524-3.306,2.864
	C59.221,22.198,59.326,27.34,61.807,31.458"/>
    <!-- <rect x="-238.673" y="-303.692" fill="none" width="595.28" height="841.89"/> -->
</svg>
